<svg xmlns="http://www.w3.org/2000/svg" width="108.04mm" height="108.05mm" viewBox="0 0 306.25 306.29">
  <defs>
    <style>
      .cls-1 {
        fill: #851727;
      }
    </style>
  </defs>
  <title>repNO</title>
  <g id="Capa_2" data-name="Capa 2">
    <g id="Capa_1-2" data-name="Capa 1">
      <path class="cls-1" d="M306.25,153.07A152.89,152.89,0,0,0,153,0C68.26,0,.12,68.48,0,153.31c-.11,84.5,69.46,153.42,153.72,153S306.28,237.59,306.25,153.07Zm-77.62-.85c.52.54.63.73.8.82,8.76,4.54,12.52,12,10.45,20.6-1.95,8.12-8.89,13-18.46,13q-20.85,0-41.7,0a33.6,33.6,0,0,0-7.75.71,3.85,3.85,0,0,0-3.33,4.28,23.28,23.28,0,0,0,1.46,6.71c2.78,8.55,6.11,16.93,8.31,25.67,2.14,8.46,3.81,17,2.22,25.76-1.43,7.87-5.74,13.55-13,16.87-6.11,2.8-10,1-11.93-5.4a157.88,157.88,0,0,1-3.7-16.67c-1.93-10.35-4.95-20.15-12.52-28a116.87,116.87,0,0,1-17.13-23.8,166.69,166.69,0,0,0-16.83-24.41c-5.1-6.16-11.29-9.62-19.48-9.33a124.79,124.79,0,0,1-15.58-.5c-4.14-.37-6-2.15-6-6.25,0-25,0-50,0-75,0-2.55,1.16-3.85,3.42-4.59a12.69,12.69,0,0,1,4.45-.44,119,119,0,0,0,26.28-1.7c18.36-3.59,36.78-6.77,55.49-7.17,20.39-.43,40.8-.24,61.2-.09,7,.05,12.06,7.31,10.62,14.17C225,81.89,222,84.59,218.3,87c2.1.27,4.08.2,6,.28A16.57,16.57,0,0,1,232.68,118c-2.73,1.75-2.73,1.75.11,3.28a16.34,16.34,0,0,1,6.9,22.6C237.36,148.29,233.4,150.6,228.63,152.22Z"/>
    </g>
  </g>
</svg>
