<svg xmlns="http://www.w3.org/2000/svg" width="158.51mm" height="83.3mm" viewBox="0 0 449.33 236.14">
  <defs>
    <style>
      .cls-1 {
        fill: #fff;
      }

      .cls-2 {
        fill: none;
      }
    </style>
  </defs>
  <title>Recurso 2</title>
  <g id="Capa_2" data-name="Capa 2">
    <g id="Capa_1-2" data-name="Capa 1">
      <g>
        <path class="cls-1" d="M299.71,133.13c.36-6.2.27-12.34.53-18.46.2-4.62-1.21-7-6-7.86-7.09-1.32-13.79-4-19.38-8.75-1.9-1.63-3-1.44-4.22.78a43.12,43.12,0,0,1-4.33,6.68,15.84,15.84,0,0,1-13,6.34c-6.5,0-13,.19-19.5,0-4-.12-5.58,1.18-5.77,5.37-.32,7.28-1.31,14.54-2,21.9-2.18-.27-1.84-1.89-2.12-3-1.55-6.3-3.22-12.59-4.47-19-.8-4.1-2.88-5.5-6.92-5.27-4.82.27-9.69-.3-14.49.15-9.33.87-15.3-3.65-19.13-11.47C177.06,96.8,175.6,96,172,98.8a42.3,42.3,0,0,1-24.47,9c-3.39.17-4.25,1.45-3.7,4.69,1.4,8.17,2.54,16.38,4,26a151.78,151.78,0,0,1-12.8-25.37c-1.66-4.24-4-6.25-8.58-6.86-9.73-1.29-18.89-4.22-25.62-12.08-1.23-1.43-2.52-2.36-3.84,0-7.9,14.14-21.5,18.05-36.13,19.66-4.39.48-4.89,2-3.86,5.73a112.87,112.87,0,0,1,3,15.11c-4.76-4.72-8.9-9.94-11.5-16-2-4.76-5.36-6.2-10-6.61a48.86,48.86,0,0,1-22.44-7.73C5.93,97.87,3.26,87.41,1.35,76.65A79,79,0,0,1,4.61,35.29c3.6-9.91,10.45-16.55,20.17-20.17,25-9.3,48.73-6.62,70.77,8.59,2.82,1.95,3.81.24,5.29-1.24A76.4,76.4,0,0,1,137.27,1.66c13.17-3.23,25.77-2,37.28,5.9,3.39,2.33,5,6.78,8.24,8.47s6.26-3.31,10.3-3.25c11.5.16,23,0,34.49,0,8.33,0,16.67,0,25-.2a15.81,15.81,0,0,1,13.22,5.79c1.35,1.61,2.51,2.68,4.31.46C283.33,2.49,301.4.54,320.45,2.29c11.15,1,21.43,4.79,30,12.37a5.52,5.52,0,0,0,4,1.53q39.48-.41,79-.63c7.73-.05,10.24,1.88,12.65,9.38A69.27,69.27,0,0,1,449,45.67c.12,16.47,1,33-.68,49.44-.17,1.65-.4,3.3-.71,4.94-2.38,12.43-5.13,14.73-17.64,14.75-7.83,0-15.67.19-23.5,0-3.83-.11-6.15,1.33-8,4.59-4.38,7.59-9.16,14.93-15.53,21.14,2.08-6.84,4.57-13.47,6.65-20.25,1.38-4.48,0-5.55-4.27-5.43-7.82.23-15.66.08-23.49.08-9.65,0-11.3-1-14.83-10.06-.88-2.25-1.54-3.55-4.16-1.91-8.23,5.11-17.37,6.75-26.86,6-4.77-.36-6.89,1.52-8.1,6A61.65,61.65,0,0,1,299.71,133.13ZM157.9,64.79c-1.85-4.5-.63-7.83,3.28-10.79-5.47,1.21-7.07-2.54-9.19-6.93-1.09,5.27-3.92,7.26-9.9,7.11,6,2.92,5.31,6.85,4.06,12.11C150.39,61.44,153.94,61.94,157.9,64.79Zm-29.07.51c-2.37-4.94-1.16-8.36,2.79-11.16-5.57.74-7.62-2.42-9.16-7-.73,4.93-3.55,7.15-8.69,7.19,2.34,2.67,5.23,4.38,3.71,8-.43,1,.72,2.29,1.65,1.42C122.59,60.43,125.13,63.64,128.83,65.3ZM58.75,57.05c-5.69,1.6-6.5-3.18-9.43-7.19.11,6.46-3.71,7.1-9.4,7.49,6.61,2.35,5.59,6.35,5,10.59,3.32-3.78,6.65-3.07,10.73-.65C53.16,62.69,55.44,60,58.75,57.05ZM230.93,58c-1.85-4.49-.63-7.82,3.28-10.78-5.47,1.21-7.07-2.55-9.19-6.93-1.09,5.27-3.92,7.26-9.9,7.11,6,2.92,5.31,6.84,4.06,12.11C223.42,54.61,227,55.12,230.93,58ZM213.65,83c-1.84-4.49-.62-7.82,3.28-10.78-5.46,1.21-7.06-2.55-9.18-6.93-1.09,5.26-3.92,7.26-9.9,7.11,6,2.92,5.31,6.84,4.05,12.11C206.14,79.66,209.7,80.17,213.65,83Zm31.57,0c-1.84-4.49-.63-7.82,3.28-10.78-5.46,1.21-7.07-2.55-9.19-6.93-1.08,5.26-3.91,7.26-9.9,7.11,6,2.92,5.31,6.84,4.06,12.11C237.71,79.66,241.27,80.17,245.22,83Zm61.3-37.43c-1.84-4.49-.63-7.82,3.28-10.78-5.46,1.21-7.07-2.55-9.19-6.93-1.09,5.26-3.91,7.26-9.9,7.11,6,2.92,5.31,6.84,4.06,12.11C299,42.23,302.56,42.74,306.52,45.58Zm0,35.6c-1.84-4.49-.63-7.82,3.28-10.78-5.46,1.21-7.07-2.55-9.19-6.93-1.09,5.26-3.91,7.26-9.9,7.11,6,2.92,5.31,6.84,4.06,12.11C299,77.83,302.56,78.34,306.52,81.18ZM335.15,64.8c-1.85-4.49-.63-7.82,3.28-10.78-5.47,1.21-7.07-2.55-9.19-6.93-1.09,5.26-3.92,7.26-9.9,7.11,6,2.92,5.31,6.84,4.06,12.11C327.64,61.45,331.19,62,335.15,64.8Zm83.52-9.61c-1.85-4.49-.63-7.82,3.28-10.78-5.47,1.21-7.07-2.55-9.19-6.93-1.09,5.26-3.92,7.26-9.9,7.11,6,2.92,5.31,6.84,4.05,12.11C411.15,51.84,414.71,52.35,418.67,55.19Zm-33-1c-1.84-4.49-.63-7.82,3.28-10.79-5.46,1.22-7.06-2.54-9.19-6.92-1.08,5.26-3.91,7.25-9.89,7.11,6,2.92,5.3,6.84,4.05,12.11C378.16,50.83,381.72,51.34,385.67,54.18Zm0,34.22c-1.84-4.49-.63-7.83,3.28-10.79-5.46,1.21-7.06-2.54-9.19-6.93-1.08,5.27-3.91,7.26-9.89,7.11,6,2.93,5.3,6.85,4.05,12.11C378.16,85.05,381.72,85.55,385.67,88.4Zm33,1.43C416.82,85.34,418,82,422,79c-5.47,1.22-7.07-2.54-9.19-6.93-1.09,5.27-3.92,7.26-9.9,7.12,6,2.92,5.31,6.84,4.05,12.11C411.15,86.48,414.71,87,418.67,89.83Z"/>
        <path class="cls-1" d="M67.09,195.84c-3.46-3.21-4.94-7.76-7.68-11.5-2.43-3.31-3.47-8-.44-12.18,1-1.33.82-2.76.55-4.29-1.41-8,1.45-14.62,7.69-19.31,6.67-5,14.45-5.89,22.28-2.93,5.58,2.11,11.43,14,10.41,20.69a15.19,15.19,0,0,0,.66,7.75,11.47,11.47,0,0,1-2.34,11.71c-2.76,3.07-4.28,6.72-6.21,10.16-2.4,4.28-1.23,7.63,3.25,9.75,7.36,3.48,14.87,6.64,22.28,10,1.59.73,2.88.23,4.29-.31a193.4,193.4,0,0,0,18.67-8.33c2.33-1.19,3.72-2.72,3.48-5.42,6.65,5,13.33,4.67,20,.13l.12.1c-.18,2.49,1.08,4,3.24,5.06a166.18,166.18,0,0,0,19.14,8.55c1.27.46,2.45.91,3.84.26,7.39-3.43,14.8-6.84,22.24-10.17,3.76-1.68,4.2-4.87,3-7.93a45.48,45.48,0,0,0-6.07-10.79c-3.73-4.83-5-9.66-2-15.16,1.39-2.62.29-5.22.24-7.82s-.6-5-.59-7.46c0-5.22,2.16-8,7.24-8.46a145.18,145.18,0,0,1,26.94,0c5.68.56,7.4,3,7.19,8.72-.14,3.82-.47,7.64-.73,11.46,0,.49-.38,1.12-.19,1.46,5.92,10.3-2.33,17-6.32,24.74-3.45,6.67-3.07,8.25,3.42,11.71s13.4,5.92,20.1,8.88a5.43,5.43,0,0,0,4.34.23c7.17-2.72,14.3-5.56,20.92-9.45,3.71-2.18,3.91-6,.7-8-.84-.54-1.94-1.42-2.64-.4-2.24,3.28-5.21,2.52-8.27,1.89-2.89-.59-4.77-3.26-7.92-3.55-1.13-.1-.94-1,2-3-1.32-1.84-3.66-1.33-5.32-2.34-3-1.85-3.2-4.59-.1-6.13,2-1,.95-2.15.61-3.28-2.28-7.56-2.34-7.65,4.34-11,2.6-1.3,3.28-3.6,4.06-6,1.57-4.75,3-9.62,6.7-13.25,9-8.86,32.31-7.66,40.24,2.09,4,4.86,4.61,10.94,5.58,16.86.61,3.75-.34,8.36,6.18,8,2.13-.13,1.37,2.38.09,3.26-2.05,1.4-3,2.48-.55,4.38,1,.8.75,1.92.18,3.14-.71,1.52-4.78-.69-3.24,4,1.06,3.17-2.81.77-4.58,1-.81.09,2.44,3,.65,3.37-2.77.58-4.56,4.07-8.1,2.38-1.71-.81-3.92-4.71-5.87-.3-1.66,3.75.58,5.7,3.75,7.41a203.17,203.17,0,0,0,20.52,9.14,4.45,4.45,0,0,0,3.82.18c6.49-3,13.26-5.33,19.72-8.46,4.87-2.36,6.39-5.45,4.44-10.37,3.12,1.35,2.05,4.17,2.21,6.51a9.62,9.62,0,0,0,9.9,9.07,9.13,9.13,0,0,0,9-9.69c-.06-2.18-.35-4.38,1.9-5.76-.8,5.39,1.36,8.8,6.53,10.73s10.09,4.34,15.16,6.45c8.27,3.45,11.88,11,9.41,19.58a2.79,2.79,0,0,1-2.77,2.34c-1.66.09-3.33.12-5,.12q-111.66.06-223.32.1-49,0-97.92-.09c-10.91,0-13.94-4.63-9.65-15.16,1-2.39.39-3.77-1.47-5.07-2-1.4-3.41,0-4.86,1.1s-1.2,2.58-.3,4a9.11,9.11,0,0,1,1.4,5.2c0,9.86,0,10-9.9,10-8.49,0-17-.11-25.48,0-3.71.07-4.89-1.48-5-5-.34-11.35,1.4-14,12.08-18.34,4.47-1.81,8.85-3.86,13.19-6,6.28-3.06,6.67-4.08,4.87-10.93,3.24,1.06,2.7,3.64,2.58,6.16a9.13,9.13,0,0,0,9,9.77c5.57.27,10.12-3.27,10.15-8.6,0-7.33,4-12.75,8.08-18.06,3.13-4,3-10.07-.85-12.24-.49-2.76-.8-5.56-1.51-8.27-1.5-5.74-3.85-6.77-8.85-3.64-4.77,3-10.06,5.19-15.41,4.51-6.05-.78-6.36,2.14-6.19,6.41-5.75,3.18-6.5,8.25-1.93,13.36A21,21,0,0,1,67.09,195.84Zm257-19.18c-5.58-4.83-3.36-14-9.27-19.57-.36-.34-.73-.68-1.11-1-1.66-1.42-3.15-1.79-4.43.52a10.55,10.55,0,0,1-6.67,4.95c-5.25,1.43-7.1,4.49-6.63,9.86s-1.72,9.79-7.52,11.38c-2.89.8-2.3,1.51-1,4,2.84,5.43,7.32,10.21,6.91,17.21-.26,4.6,4.18,8.19,8.92,8.41s9.53-3.18,9.6-7.63c.12-7.89,4.24-13.72,8.65-19.56C323.19,183,323.38,180.3,324.06,176.66Zm-76.24.11c0-.12.24-1.86-.4-2.31-4.8-3.34-4.15-8.49-5.11-13.26-.56-2.75-1.7-6.95-6.27-4.82a17.72,17.72,0,0,1-15.82.13c-3.61-1.67-5.79.35-6.6,3.77a45.75,45.75,0,0,0-.59,6.45c-.16,1.83-.34,3.57-1.94,4.92-4.51,3.8-4.8,8.16-1.39,12.72,4.35,5.82,8.56,11.67,8.55,19.57,0,4.61,4.92,8,9.94,7.77,4.71-.26,9.33-4.11,9-8.33s1.53-7.21,3-10.74C242.4,187.48,247.65,183.94,247.82,176.77Z"/>
        <path class="cls-1" d="M142.08,199.83c-1.05-1.27-5,.53-3.55-3.69.55-1.63-1.67-1.62-2.92-.89-1.43.82-2.64,2.06-4.12,2.76-2.19,1-4.91.19-4.35-2.09,1.51-6.18-3.71-9.5-5.11-14.36-.27-.92-1.47-2-1.22-2.59,2.16-4.72,4.68-9.33-.38-13.88a8.12,8.12,0,0,1,1.07-1.92c6.52,3.31,2.06-2.84,3.41-4,3.79-3.3,7.58-6.54,9.6-11.52.52-1.29,3.71-1.8,6.08-1.23-.79,2-2.63,1.17-3.84,1.78s-2.52,1.35-1.46,3c.72,1.1,2.32,1.58,3,.49,3.19-5.25,10.13-3.94,13.87-8.22,1.22-1.41,3.2-1.39,5.15-1.14a74.25,74.25,0,0,0,11.39.89c5.25-.11,7.8,3.89,9.46,8.29,1.06,2.81,1.24,6.1,5.82,3.53,2.17-1.21,6.76,5.25,5.27,8-2.43,4.53,0,10.08-3.44,14.25a1.55,1.55,0,0,0,.15,1.4c2.53,3.78,2.23,6.65-.72,10.66-2.67,3.61-5.83,5.06-9.5,6-4.51,1.17-7.62,4.55-11.58,6.52l-.12-.09c1.48-3.32,3-6.61,4.42-10a2.15,2.15,0,0,0-1-3c-1.53-.78-1.91.57-2.66,1.43a14.14,14.14,0,0,0-2.85,6.08c-2.57-1.91-1.28-3.47-.36-5,1-1.7,1.21-3.36-1-3.94-9.34-2.46-16-8.13-20.18-17.85-.6,2.22-.94,3.3-1.18,4.41C137.27,182.89,139.84,191.34,142.08,199.83Z"/>
        <path class="cls-1" d="M390.07,196.84c1.63-4.14,3.21-8.24,6.34-11.65s1.83-7.93.42-11.75c-2.63-7.05-8.41-5.54-13.42-6.38-4-.67-4-.56-4.86-5.34-.82,4.17-1.93,5.7-6.59,4.09-2.24-.77-5.59,2.8-9.22,4.68-3.85,2,4.86,25.9,4.29,26.2-3.77-2.16-9.37-25.72-8.31-28.51-1.81-14.12,6.68-23.51,20.92-23.05,12.59.4,20.07,8.61,19.35,21.44a26,26,0,0,0,.79,8.74c1.17,4.24.62,8.75-2.87,12C394,190.06,394.05,194.9,390.07,196.84Z"/>
        <path class="cls-1" d="M219.1,195.62c0-5.62,3.44-9.43,8.68-9.59a8.61,8.61,0,0,1,9,8.13q.27,12.81-9.15,12.69C222.09,206.77,219.11,202.84,219.1,195.62ZM233,194.35c0-3.82-2.47-4-5.38-4s-5.07.94-5,4,2,5.26,5.33,5.3S233,197.7,233,194.35Z"/>
        <path class="cls-1" d="M64.05,171.8c8.61-1.5,17.3.7,26-.59a9,9,0,0,1,6.09,1.61c-.3,1.28-.61,2.57-.91,3.85-.86,3.71-2.76,6.53-6.9,6.61-3.94.07-6.48-2.07-7.51-5.92a6.71,6.71,0,0,0-.93-1.4c-.58,1.31-1,2.35-1.48,3.33a7,7,0,0,1-7.3,4.07c-3.08-.31-5.08-2.37-6-5.26C64.48,176.08,63.69,174,64.05,171.8Z"/>
      </g>
      <path class="cls-2" d="M219.34,73.4c-1.85-4.49-.63-7.82,3.28-10.78-5.47,1.21-7.07-2.55-9.19-6.93-1.09,5.26-3.92,7.26-9.9,7.11,6,2.92,5.31,6.84,4.06,12.11C211.83,70.05,215.38,70.56,219.34,73.4Z"/>
    </g>
  </g>
</svg>
