<svg xmlns="http://www.w3.org/2000/svg" width="108.04mm" height="108.05mm" viewBox="0 0 306.25 306.29">
  <defs>
    <style>
      .cls-1 {
        fill: #59a03e;
      }
    </style>
  </defs>
  <title>repYes</title>
  <g id="Capa_2" data-name="Capa 2">
    <g id="Capa_1-2" data-name="Capa 1">
      <path class="cls-1" d="M306.25,153.22A152.89,152.89,0,0,1,153,306.29C68.26,306.25.12,237.81,0,153-.11,68.48,69.46-.44,153.72,0S306.28,68.7,306.25,153.22Zm-77.62.85c.52-.54.63-.73.8-.82,8.76-4.54,12.52-11.95,10.45-20.6-1.95-8.12-8.89-13-18.46-13q-20.85,0-41.7,0a33.6,33.6,0,0,1-7.75-.71,3.85,3.85,0,0,1-3.33-4.27,23.27,23.27,0,0,1,1.46-6.72c2.78-8.55,6.11-16.93,8.31-25.66,2.14-8.47,3.81-17,2.22-25.77-1.43-7.87-5.74-13.55-13-16.87-6.11-2.8-10-1-11.93,5.4A157.88,157.88,0,0,0,152,61.71c-1.93,10.35-4.95,20.15-12.52,28a116.87,116.87,0,0,0-17.13,23.8A166.69,166.69,0,0,1,105.55,138c-5.1,6.16-11.29,9.62-19.48,9.33a124.79,124.79,0,0,0-15.58.5c-4.14.38-6,2.15-6,6.25,0,25,0,50,0,75,0,2.55,1.16,3.85,3.42,4.59a12.69,12.69,0,0,0,4.45.44,119,119,0,0,1,26.28,1.7c18.36,3.59,36.78,6.77,55.49,7.17,20.39.43,40.8.24,61.2.09,7-.05,12.06-7.31,10.62-14.17-.93-4.46-3.91-7.16-7.58-9.56,2.1-.27,4.08-.2,6-.28a16.56,16.56,0,0,0,8.33-30.69c-2.73-1.75-2.73-1.75.11-3.28a16.34,16.34,0,0,0,6.9-22.6C237.36,158,233.4,155.69,228.63,154.07Z"/>
    </g>
  </g>
</svg>
