<svg xmlns="http://www.w3.org/2000/svg" width="135.84mm" height="65.02mm" viewBox="0 0 385.06 184.32">
  <defs>
    <style>
      .cls-1 {
        fill: #fff;
      }
    </style>
  </defs>
  <title>Recurso 3</title>
  <g id="Capa_2" data-name="Capa 2">
    <g id="Capa_1-2" data-name="Capa 1">
      <g>
        <path class="cls-1" d="M30.2,144c-3.45-3.2-4.93-7.76-7.68-11.49-2.43-3.31-3.46-8-.43-12.18,1-1.34.82-2.77.55-4.29-1.41-8,1.44-14.62,7.69-19.32,6.67-5,14.45-5.89,22.28-2.92C58.18,95.93,64,107.84,63,114.5a15.18,15.18,0,0,0,.65,7.75A11.51,11.51,0,0,1,61.34,134c-2.77,3.06-4.28,6.71-6.21,10.15-2.4,4.28-1.24,7.64,3.25,9.76,7.36,3.47,14.87,6.63,22.27,10,1.59.72,2.89.23,4.29-.31a196.13,196.13,0,0,0,18.68-8.34c2.33-1.19,3.71-2.71,3.48-5.42,6.65,5,13.33,4.68,20,.14l.12.09c-.18,2.5,1.08,3.95,3.24,5.06a167.2,167.2,0,0,0,19.14,8.56c1.26.46,2.44.9,3.83.26,7.4-3.43,14.8-6.85,22.25-10.17,3.76-1.68,4.19-4.87,3-7.93a45.31,45.31,0,0,0-6.06-10.8c-3.73-4.82-5-9.66-2-15.16,1.39-2.62.29-5.22.23-7.82s-.59-5-.58-7.46c0-5.22,2.16-8,7.24-8.45a143.36,143.36,0,0,1,26.93,0c5.69.55,7.41,3,7.2,8.71-.15,3.83-.48,7.64-.73,11.46,0,.5-.39,1.12-.19,1.46,5.91,10.3-2.33,17-6.32,24.75-3.45,6.66-3.08,8.25,3.41,11.71s13.4,5.92,20.1,8.87a5.45,5.45,0,0,0,4.35.23,136.56,136.56,0,0,0,20.92-9.45c3.71-2.17,3.9-5.95.7-8-.84-.54-1.94-1.42-2.64-.4-2.25,3.28-5.22,2.52-8.28,1.89-2.88-.6-4.77-3.27-7.91-3.55-1.14-.11-1-1.05,2-3-1.31-1.85-3.65-1.34-5.31-2.35-3.05-1.85-3.2-4.59-.1-6.12,2-1,.95-2.16.61-3.29-2.28-7.55-2.34-7.64,4.34-11,2.59-1.31,3.28-3.6,4.06-6,1.57-4.76,3-9.63,6.7-13.25,9-8.87,32.31-7.67,40.24,2.08,3.95,4.86,4.61,11,5.57,16.86.62,3.75-.33,8.37,6.18,8,2.14-.12,1.38,2.39.09,3.26-2,1.4-3,2.48-.54,4.38,1,.81.74,1.92.18,3.15-.71,1.51-4.79-.7-3.24,4,1.05,3.17-2.82.77-4.59,1-.8.1,2.44,3,.65,3.37-2.76.58-4.55,4.07-8.09,2.39-1.72-.82-3.93-4.72-5.87-.31-1.66,3.75.58,5.7,3.75,7.41a198.64,198.64,0,0,0,20.51,9.14,4.47,4.47,0,0,0,3.83.19c6.49-3,13.26-5.34,19.72-8.47,4.86-2.36,6.39-5.44,4.44-10.37,3.12,1.36,2.05,4.17,2.21,6.51a9.61,9.61,0,0,0,9.89,9.07,9.13,9.13,0,0,0,9-9.69c-.05-2.18-.35-4.37,1.91-5.76-.81,5.39,1.36,8.8,6.53,10.73s10.08,4.34,15.15,6.45c8.28,3.45,11.88,11,9.42,19.59a2.79,2.79,0,0,1-2.77,2.33c-1.67.1-3.33.12-5,.12q-111.66.06-223.32.1-49,0-97.92-.08c-10.9,0-13.93-4.64-9.65-15.17,1-2.39.4-3.77-1.47-5.06-2-1.41-3.4,0-4.86,1.1s-1.2,2.57-.29,3.94a9.13,9.13,0,0,1,1.4,5.21c0,9.85,0,10-9.9,10-8.5,0-17-.12-25.48,0-3.71.07-4.89-1.48-5-5-.35-11.36,1.39-14.05,12.08-18.35,4.47-1.8,8.85-3.86,13.18-6,6.29-3.07,6.67-4.08,4.88-10.94,3.24,1.07,2.7,3.64,2.58,6.17a9.12,9.12,0,0,0,9,9.76c5.57.27,10.13-3.26,10.15-8.6,0-7.33,4-12.75,8.09-18.06,3.13-4,2.95-10.06-.85-12.23-.49-2.76-.8-5.57-1.51-8.28-1.5-5.74-3.86-6.76-8.85-3.64-4.78,3-10.06,5.2-15.42,4.51-6-.77-6.35,2.14-6.18,6.41-5.75,3.18-6.5,8.25-1.93,13.36A21,21,0,0,1,30.2,144Zm257-19.18c-5.58-4.82-3.36-14-9.27-19.57-.37-.34-.73-.68-1.11-1-1.66-1.42-3.15-1.78-4.43.53a10.62,10.62,0,0,1-6.67,4.94c-5.26,1.43-7.1,4.5-6.63,9.87s-1.72,9.78-7.52,11.38c-2.89.79-2.3,1.5-1,4,2.84,5.43,7.32,10.22,6.91,17.21-.27,4.61,4.18,8.19,8.92,8.41s9.53-3.17,9.59-7.63c.12-7.88,4.25-13.72,8.66-19.55C286.3,131.16,286.49,128.48,287.18,124.84Zm-76.24.11c0-.11.24-1.86-.41-2.3-4.8-3.35-4.14-8.5-5.11-13.27-.55-2.74-1.69-6.95-6.27-4.82a17.69,17.69,0,0,1-15.82.13c-3.61-1.66-5.78.35-6.59,3.77a43.08,43.08,0,0,0-.59,6.45c-.16,1.83-.34,3.57-2,4.92-4.51,3.8-4.79,8.17-1.38,12.73,4.35,5.82,8.56,11.66,8.55,19.57,0,4.6,4.91,8,9.94,7.76,4.71-.25,9.32-4.1,9-8.32s1.53-7.22,3-10.75C205.52,135.66,210.77,132.12,210.94,125Z"/>
        <path class="cls-1" d="M105.2,148c-1.06-1.27-5,.54-3.55-3.69.54-1.63-1.67-1.61-2.92-.89-1.43.83-2.65,2.07-4.13,2.76-2.18,1-4.91.19-4.35-2.09,1.52-6.17-3.7-9.5-5.11-14.35-.26-.93-1.46-2-1.21-2.59,2.16-4.73,4.68-9.34-.38-13.89a8,8,0,0,1,1.07-1.92c6.51,3.31,2-2.83,3.41-4,3.79-3.29,7.58-6.54,9.59-11.51.53-1.29,3.71-1.8,6.09-1.23-.79,2-2.64,1.16-3.84,1.78s-2.53,1.34-1.47,3c.72,1.1,2.32,1.58,3,.49,3.18-5.25,10.13-3.94,13.86-8.22,1.23-1.41,3.21-1.4,5.15-1.14a74.38,74.38,0,0,0,11.4.88c5.24-.11,7.8,3.89,9.46,8.29,1.05,2.81,1.23,6.1,5.82,3.53,2.17-1.21,6.76,5.25,5.27,8-2.43,4.53,0,10.07-3.44,14.24a1.55,1.55,0,0,0,.14,1.4c2.54,3.78,2.24,6.66-.72,10.66-2.66,3.62-5.82,5.06-9.49,6-4.52,1.18-7.62,4.55-11.58,6.53l-.12-.09c1.48-3.32,3-6.62,4.41-10a2.15,2.15,0,0,0-1-3c-1.53-.77-1.91.58-2.66,1.43a14.12,14.12,0,0,0-2.85,6.09c-2.57-1.92-1.29-3.48-.36-5,1-1.7,1.21-3.35-1-3.94-9.34-2.46-16-8.13-20.19-17.85-.59,2.22-.93,3.31-1.17,4.41C100.38,131.08,103,139.53,105.2,148Z"/>
        <path class="cls-1" d="M353.18,145c1.64-4.14,3.21-8.24,6.35-11.65s1.83-7.93.41-11.74c-2.62-7.06-8.4-5.54-13.41-6.39-3.95-.66-4-.55-4.86-5.33-.82,4.17-1.94,5.7-6.6,4.08-2.23-.77-5.59,2.8-9.21,4.68-3.85,2,4.86,25.91,4.29,26.2-3.77-2.16-9.37-25.71-8.31-28.5-1.81-14.13,6.68-23.52,20.91-23.06,12.59.4,20.07,8.62,19.35,21.44a26.2,26.2,0,0,0,.79,8.74c1.18,4.24.62,8.75-2.87,12C357.06,138.25,357.16,143.09,353.18,145Z"/>
        <path class="cls-1" d="M182.22,143.8c0-5.62,3.44-9.43,8.68-9.59a8.62,8.62,0,0,1,9,8.14c.18,8.53-2.88,12.77-9.16,12.68C185.21,155,182.23,151,182.22,143.8Zm13.9-1.27c0-3.82-2.46-4-5.38-4s-5.06.94-5,4.05a5,5,0,0,0,5.33,5.29C194.53,147.89,196.11,145.88,196.12,142.53Z"/>
        <path class="cls-1" d="M27.17,120c8.61-1.5,17.3.69,25.95-.6A9,9,0,0,1,59.21,121c-.31,1.29-.62,2.57-.91,3.86-.87,3.71-2.77,6.53-6.9,6.6-3.94.08-6.48-2.06-7.51-5.92a6.21,6.21,0,0,0-.94-1.39c-.57,1.3-1,2.34-1.47,3.33a7,7,0,0,1-7.3,4.07c-3.09-.31-5.08-2.37-6-5.26C27.6,124.26,26.81,122.2,27.17,120Z"/>
      </g>
      <g>
        <path class="cls-1" d="M191,76.43a45.55,45.55,0,0,1-5.37-.13,5.81,5.81,0,0,1-4.84-5.84c0-2.86,0-5.72,0-8.58a9.37,9.37,0,0,0-2.5-6.56,24,24,0,0,1-5.61-10.22,18.12,18.12,0,0,1,1.66-12.65,18.86,18.86,0,0,1,14.22-10.78c8.24-1.45,16.68,3.29,20.28,11.26a21.33,21.33,0,0,1,1.88,8.13A18.08,18.08,0,0,1,208,50.5a30.68,30.68,0,0,1-3.82,5.29,8.2,8.2,0,0,0-2.09,5.48c0,2.93,0,5.87,0,8.81,0,3.71-2.42,6.28-6,6.34C194.56,76.45,193,76.43,191,76.43Zm.4-17.84h0c2.12,0,4.24,0,6.36,0a.86.86,0,0,0,1-.76,12.56,12.56,0,0,1,3-5.27,17.33,17.33,0,0,0,1.64-2.09c2.14-3.14,3.73-6.44,3.34-10.51-.72-7.54-6.56-13.89-14.21-14.39a14.37,14.37,0,0,0-12.61,5.54,14.91,14.91,0,0,0-3.44,12.69,18.29,18.29,0,0,0,4.68,8.65,13.6,13.6,0,0,1,3,5.4.86.86,0,0,0,1,.73C187.23,58.57,189.3,58.59,191.37,58.59Zm0,6.81h5.1c1.68,0,1.65,0,1.69-1.75,0-.74-.18-1-.91-1-3.64,0-7.29,0-10.93,0-2,0-1.64-.34-1.7,1.82,0,.66.18.91.84.9C187.48,65.38,189.45,65.4,191.42,65.4Zm3.45,6.88v0c.49,0,1,0,1.47,0a1.91,1.91,0,0,0,1.87-2.05c0-.59-.21-.76-.75-.75-1.2,0-2.41,0-3.62,0-2.78,0-5.57,0-8.35,0-.68,0-.86.24-.82.9a1.82,1.82,0,0,0,1.86,1.88C189.31,72.29,192.09,72.28,194.87,72.28Z"/>
        <path class="cls-1" d="M167.28,11.87a2.73,2.73,0,0,1,1.53-2.45,2.37,2.37,0,0,1,2.88.43c1.18,1.13,2.3,2.33,3.43,3.51s2.3,2.39,3.42,3.63a2.82,2.82,0,0,1,.06,3.89,2.54,2.54,0,0,1-3.78.11c-1.76-1.72-3.43-3.54-5.14-5.32-.54-.56-1.09-1.12-1.61-1.7A2.89,2.89,0,0,1,167.28,11.87Z"/>
        <path class="cls-1" d="M205.74,18.91a2.6,2.6,0,0,1,.8-2c2.19-2.3,4.37-4.6,6.58-6.88A2.57,2.57,0,0,1,217,10a2.85,2.85,0,0,1-.11,4q-3.27,3.45-6.58,6.88a2.49,2.49,0,0,1-3,.63A2.63,2.63,0,0,1,205.74,18.91Z"/>
        <path class="cls-1" d="M194.74,7.79c0,1.65,0,3.3,0,4.94a2.65,2.65,0,0,1-5.28.39,37,37,0,0,1-.08-4.94,49.25,49.25,0,0,1,.08-5.7A2.67,2.67,0,0,1,192.2,0a2.72,2.72,0,0,1,2.54,2.85C194.75,4.5,194.75,6.14,194.74,7.79Z"/>
        <path class="cls-1" d="M199.46,44.55c0,.23-.14.34-.25.46-.65.68-1.3,1.34-1.93,2a.53.53,0,0,1-.88,0,7.51,7.51,0,0,0-9.93,0c-.36.33-.62.28-.93-.06-.6-.65-1.2-1.3-1.84-1.9-.4-.39-.33-.65,0-1a10.65,10.65,0,0,1,5.51-2.79,11.16,11.16,0,0,1,9.69,2.62A1.49,1.49,0,0,1,199.46,44.55Z"/>
      </g>
      <g>
        <path class="cls-1" d="M299.76,6.73A16.78,16.78,0,0,1,311.7,14.4c.68,1,1.26,1.54,2.59,1.31,11.23-2,19.28,9.77,16.69,19.73a2.56,2.56,0,0,0,1,2.74,11.87,11.87,0,0,1,3.19,12.9c-1.61,5-5,7.76-10,8a1.65,1.65,0,0,0-1.7,1.36c-2.8,8.35-13.34,12.89-21.26,8.51a2.69,2.69,0,0,0-3.12.17,13.27,13.27,0,0,1-10,2,9.43,9.43,0,0,1-6.34-4.92A1.94,1.94,0,0,0,280.54,65c-7,1.34-12.46-4.71-12.48-12.78A4.23,4.23,0,0,0,266.89,49a17.17,17.17,0,0,1-3.08-18.43c2.56-6.21,8.06-9.88,14.55-9.54,1.51.08,2.1-.52,2.62-2C283.94,11,291.06,6.13,299.76,6.73Zm-27.6,43.85c-.57,8,3.44,11.6,10.36,9.49,1.52-.46,2.13-.09,2.63,1.49,1.25,4,3.14,5.54,6.41,5.56a8.86,8.86,0,0,0,6.71-2.5c1.66-1.76,2.68-1.68,4.57-.28,6.9,5.1,16.28.52,17.45-8.41.32-2.36,1.49-1.7,2.71-1.38,3.81,1,7.11-.87,8.49-4.88,1.25-3.59-.16-7.74-3.54-9.21-2.2-1-2.18-1.91-1.37-4.06,1.75-4.64,1.16-9.11-2-12.84-3-3.56-6.88-4.85-11.2-3.21-2,.77-2.89.4-3.86-1.69a13,13,0,0,0-14.45-7.52,14.58,14.58,0,0,0-11.2,12.92c-.24,2.26-1,2.38-2.76,1.78a10.62,10.62,0,0,0-13.34,5.62,12.47,12.47,0,0,0,2.85,15.3C271.92,47.9,272.67,49,272.16,50.58Z"/>
        <path class="cls-1" d="M271.14,76.13c.23-3.08,2.68-5.47,5.42-5.27s4.82,2.83,4.62,6-2.56,5.41-5.4,5.21A5.26,5.26,0,0,1,271.14,76.13Z"/>
        <path class="cls-1" d="M328.91,69.17c.22-3.09,2.68-5.47,5.42-5.28s4.81,2.83,4.61,6-2.55,5.41-5.4,5.21A5.24,5.24,0,0,1,328.91,69.17Z"/>
        <path class="cls-1" d="M338.2,78.32a3.23,3.23,0,0,1,3.25-3.16,3.2,3.2,0,0,1,2.77,3.58,3,3,0,1,1-6-.42Z"/>
        <path class="cls-1" d="M263.31,81.68a3.24,3.24,0,0,1,3.25-3.16,3.19,3.19,0,0,1,2.77,3.59,3,3,0,1,1-6-.43Z"/>
      </g>
      <g>
        <path class="cls-1" d="M43.14,36.73a22.61,22.61,0,0,1,5-13.49c4-5,9-7.34,14.88-6.91,5,.38,9.33,2.87,12.7,7.33a23.13,23.13,0,0,1,4.61,13.45,23.62,23.62,0,0,1-3.58,13.63c-.27.42-.33.72,0,1a2.75,2.75,0,0,1,.22.26c.5.71,1,1.12,1.92.78a2.72,2.72,0,0,1,3,1c2.94,3.41,5.89,6.8,8.79,10.25a4.46,4.46,0,0,1-.08,5.84q-.75.91-1.53,1.8a3.15,3.15,0,0,1-5,0q-4.31-5-8.57-10a4.5,4.5,0,0,1-.91-4.43.73.73,0,0,0-.15-.8c-.32-.34-.63-.7-.92-1.07s-.48-.31-.79,0A16.29,16.29,0,0,1,62.6,59.57c-6,.25-10.94-2.24-14.88-7.44C44.72,48.18,43.14,43.16,43.14,36.73ZM76.75,38c.12-9.56-6.65-17.55-15-17.55s-15,7.88-15,17.54c0,9.83,7,17.52,15.09,17.5S76.87,47.51,76.75,38Z"/>
        <path class="cls-1" d="M66.78,48.57A9.05,9.05,0,0,1,54.27,48,13.37,13.37,0,0,1,52.2,32.38,17,17,0,0,0,56.39,44.3,12.38,12.38,0,0,0,66.78,48.57Z"/>
      </g>
      <g>
        <path class="cls-1" d="M86.34,36.71a15.47,15.47,0,0,1,3.39-9.18c2.74-3.4,6.15-5,10.13-4.7a11.68,11.68,0,0,1,8.64,5A15.75,15.75,0,0,1,111.64,37a16,16,0,0,1-2.44,9.27c-.18.29-.22.49,0,.72l.15.17c.34.49.66.76,1.3.53a1.86,1.86,0,0,1,2.07.69c2,2.32,4,4.63,6,7a3,3,0,0,1-.06,4c-.34.41-.69.82-1,1.22a2.15,2.15,0,0,1-3.42,0q-2.92-3.39-5.83-6.8a3.07,3.07,0,0,1-.62-3,.5.5,0,0,0-.1-.55,8.93,8.93,0,0,1-.63-.73c-.18-.24-.33-.21-.53,0a11.14,11.14,0,0,1-6.93,2.87c-4.06.17-7.45-1.52-10.13-5.06A16.73,16.73,0,0,1,86.34,36.71Zm22.88.84c.08-6.5-4.53-11.94-10.23-11.93S88.76,31,88.77,37.55,93.5,49.47,99,49.45,109.3,44.05,109.22,37.55Z"/>
        <path class="cls-1" d="M102.43,44.76a6.16,6.16,0,0,1-8.51-.41,9.1,9.1,0,0,1-1.41-10.6,11.54,11.54,0,0,0,2.85,8.11A8.39,8.39,0,0,0,102.43,44.76Z"/>
      </g>
    </g>
  </g>
</svg>
