<svg xmlns="http://www.w3.org/2000/svg" width="135.84mm" height="62.21mm" viewBox="0 0 385.06 176.35">
  <defs>
    <style>
      .cls-1 {
        fill: #fff;
      }
    </style>
  </defs>
  <title>upload</title>
  <g id="Capa_2" data-name="Capa 2">
    <g id="Capa_1-2" data-name="Capa 1">
      <g>
        <path class="cls-1" d="M30.2,136.05c-3.45-3.21-4.93-7.76-7.68-11.5-2.43-3.31-3.46-8-.43-12.18,1-1.33.82-2.76.55-4.29-1.41-8,1.44-14.62,7.69-19.31,6.67-5,14.45-5.89,22.28-2.93C58.18,88,64,99.87,63,106.53a15.18,15.18,0,0,0,.65,7.75A11.49,11.49,0,0,1,61.34,126c-2.77,3.07-4.28,6.72-6.21,10.16-2.4,4.28-1.24,7.64,3.25,9.75,7.36,3.48,14.87,6.64,22.27,10,1.59.72,2.89.22,4.29-.32a193.57,193.57,0,0,0,18.68-8.33c2.33-1.19,3.71-2.71,3.48-5.42,6.65,5,13.33,4.68,20,.14l.12.09c-.18,2.49,1.08,3.95,3.24,5.06a165.42,165.42,0,0,0,19.14,8.55c1.26.46,2.44.91,3.83.26,7.4-3.43,14.8-6.84,22.25-10.17,3.76-1.68,4.19-4.86,3-7.93a45.44,45.44,0,0,0-6.06-10.79c-3.73-4.82-5-9.66-2-15.16,1.39-2.62.29-5.22.23-7.82s-.59-5-.58-7.46c0-5.22,2.16-8,7.24-8.45a144.21,144.21,0,0,1,26.93,0c5.69.56,7.41,3,7.2,8.72-.15,3.82-.48,7.64-.73,11.46,0,.49-.39,1.12-.19,1.46,5.91,10.3-2.33,17-6.32,24.75-3.45,6.66-3.08,8.25,3.41,11.71s13.4,5.91,20.1,8.87a5.45,5.45,0,0,0,4.35.23A136.56,136.56,0,0,0,253.15,146c3.71-2.18,3.9-5.95.7-8-.84-.54-1.94-1.42-2.64-.4-2.25,3.28-5.22,2.53-8.28,1.89-2.88-.59-4.77-3.26-7.91-3.55-1.14-.1-1-1,2-3-1.31-1.84-3.65-1.33-5.31-2.34-3.05-1.85-3.2-4.59-.1-6.13,2-1,.95-2.15.61-3.28-2.28-7.56-2.34-7.65,4.34-11,2.59-1.3,3.28-3.59,4.06-6,1.57-4.75,3-9.62,6.7-13.24,9-8.87,32.31-7.67,40.24,2.08,3.95,4.86,4.61,11,5.57,16.86.62,3.75-.33,8.37,6.18,8,2.14-.13,1.38,2.38.09,3.26-2,1.4-3,2.48-.54,4.38,1,.81.74,1.92.18,3.14-.71,1.52-4.79-.69-3.24,4,1.05,3.17-2.82.77-4.59,1-.8.1,2.44,3,.65,3.37-2.76.58-4.55,4.07-8.09,2.39-1.72-.82-3.93-4.72-5.87-.31-1.66,3.75.58,5.7,3.75,7.41a198.64,198.64,0,0,0,20.51,9.14,4.51,4.51,0,0,0,3.83.19c6.49-3,13.26-5.34,19.72-8.47,4.86-2.36,6.39-5.45,4.44-10.37,3.12,1.35,2.05,4.17,2.21,6.51a9.62,9.62,0,0,0,9.89,9.07,9.13,9.13,0,0,0,9-9.69c-.05-2.18-.35-4.37,1.91-5.76-.81,5.39,1.36,8.8,6.53,10.73s10.08,4.34,15.15,6.45c8.28,3.45,11.88,11,9.42,19.58a2.79,2.79,0,0,1-2.77,2.34c-1.67.09-3.33.12-5,.12q-111.66.06-223.32.1-49,0-97.92-.09c-10.9,0-13.93-4.63-9.65-15.16,1-2.39.4-3.77-1.47-5.07-2-1.4-3.4,0-4.86,1.1s-1.2,2.58-.29,4a9.11,9.11,0,0,1,1.4,5.2c0,9.86,0,10-9.9,10-8.5,0-17-.11-25.48.05-3.71.07-4.89-1.48-5-5-.35-11.35,1.39-14,12.08-18.34,4.47-1.8,8.85-3.86,13.18-6,6.29-3.06,6.67-4.08,4.88-10.93,3.24,1.06,2.7,3.64,2.58,6.16a9.12,9.12,0,0,0,9,9.77c5.57.27,10.13-3.27,10.15-8.6,0-7.33,4-12.75,8.09-18.06,3.13-4,2.95-10.06-.85-12.23-.49-2.77-.8-5.57-1.51-8.28-1.5-5.74-3.86-6.77-8.85-3.64-4.78,3-10.06,5.19-15.42,4.51-6-.77-6.35,2.14-6.18,6.41-5.75,3.18-6.5,8.25-1.93,13.36A21,21,0,0,1,30.2,136.05Zm257-19.18c-5.58-4.82-3.36-14-9.27-19.57-.37-.34-.73-.68-1.11-1-1.66-1.42-3.15-1.79-4.43.52a10.6,10.6,0,0,1-6.67,5c-5.26,1.43-7.1,4.49-6.63,9.86s-1.72,9.79-7.52,11.38c-2.89.8-2.3,1.51-1,4,2.84,5.43,7.32,10.21,6.91,17.21-.27,4.61,4.18,8.19,8.92,8.41s9.53-3.18,9.59-7.63c.12-7.89,4.25-13.72,8.66-19.55C286.3,123.19,286.49,120.51,287.18,116.87Zm-76.24.11c0-.12.24-1.86-.41-2.31-4.8-3.34-4.14-8.49-5.11-13.26-.55-2.75-1.69-7-6.27-4.82a17.69,17.69,0,0,1-15.82.13c-3.61-1.67-5.78.35-6.59,3.77a43.08,43.08,0,0,0-.59,6.45c-.16,1.83-.34,3.57-2,4.92-4.51,3.8-4.79,8.16-1.38,12.72,4.35,5.83,8.56,11.67,8.55,19.58,0,4.6,4.91,8,9.94,7.76,4.71-.25,9.32-4.11,9-8.32s1.53-7.22,3-10.75C205.52,127.69,210.77,124.15,210.94,117Z"/>
        <path class="cls-1" d="M105.2,140c-1.06-1.27-5,.54-3.55-3.69.54-1.63-1.67-1.61-2.92-.89-1.43.82-2.65,2.07-4.13,2.76-2.18,1-4.91.19-4.35-2.09,1.52-6.18-3.7-9.5-5.11-14.36-.26-.92-1.46-2-1.21-2.59,2.16-4.72,4.68-9.33-.38-13.88a7.78,7.78,0,0,1,1.07-1.92c6.51,3.31,2-2.83,3.41-4,3.79-3.29,7.58-6.54,9.59-11.52.53-1.28,3.71-1.79,6.09-1.23-.79,2-2.64,1.17-3.84,1.78s-2.53,1.35-1.47,3c.72,1.1,2.32,1.59,3,.49,3.18-5.25,10.13-3.93,13.86-8.22,1.23-1.4,3.21-1.39,5.15-1.13a75.66,75.66,0,0,0,11.4.88c5.24-.11,7.8,3.89,9.46,8.29,1.05,2.81,1.23,6.1,5.82,3.53,2.17-1.21,6.76,5.25,5.27,8-2.43,4.54,0,10.08-3.44,14.25a1.55,1.55,0,0,0,.14,1.4c2.54,3.78,2.24,6.65-.72,10.66-2.66,3.62-5.82,5.06-9.49,6-4.52,1.18-7.62,4.55-11.58,6.53l-.12-.09c1.48-3.32,3-6.62,4.41-10a2.14,2.14,0,0,0-1-3c-1.53-.77-1.91.57-2.66,1.43a14.12,14.12,0,0,0-2.85,6.09c-2.57-1.92-1.29-3.48-.36-5,1-1.7,1.21-3.35-1-3.94-9.34-2.46-16-8.13-20.19-17.85-.59,2.22-.93,3.3-1.17,4.41C100.38,123.11,103,131.56,105.2,140Z"/>
        <path class="cls-1" d="M353.18,137.05c1.64-4.14,3.21-8.24,6.35-11.65s1.83-7.93.41-11.75c-2.62-7.05-8.4-5.54-13.41-6.38-3.95-.66-4-.55-4.86-5.34-.82,4.17-1.94,5.71-6.6,4.09-2.23-.77-5.59,2.8-9.21,4.68-3.85,2,4.86,25.91,4.29,26.2-3.77-2.16-9.37-25.71-8.31-28.5-1.81-14.13,6.68-23.52,20.91-23.06,12.59.4,20.07,8.61,19.35,21.44a26.2,26.2,0,0,0,.79,8.74c1.18,4.24.62,8.75-2.87,12C357.06,130.28,357.16,135.11,353.18,137.05Z"/>
        <path class="cls-1" d="M182.22,135.83c0-5.62,3.44-9.43,8.68-9.59a8.62,8.62,0,0,1,9,8.14c.18,8.53-2.88,12.77-9.16,12.68C185.21,147,182.23,143.06,182.22,135.83Zm13.9-1.27c0-3.82-2.46-4-5.38-4s-5.06.94-5,4,2,5.26,5.33,5.3S196.11,137.91,196.12,134.56Z"/>
        <path class="cls-1" d="M27.17,112c8.61-1.49,17.3.7,25.95-.59A9,9,0,0,1,59.21,113c-.31,1.28-.62,2.57-.91,3.85-.87,3.71-2.77,6.54-6.9,6.61-3.94.07-6.48-2.06-7.51-5.92a6.45,6.45,0,0,0-.94-1.4c-.57,1.31-1,2.35-1.47,3.34a7,7,0,0,1-7.3,4.06c-3.09-.31-5.08-2.37-6-5.26C27.6,116.29,26.81,114.23,27.17,112Z"/>
      </g>
      <path class="cls-1" d="M148.64,47.14V42.45c.07-.32.15-.64.21-1a18.47,18.47,0,0,1,9.86-13.64,1.6,1.6,0,0,0,1-1.94A23.35,23.35,0,0,1,161.26,14C167.5-1.45,187-4.89,197.59,7.6a1,1,0,0,0,1.52.3,16.9,16.9,0,0,1,8-2.14,17.9,17.9,0,0,1,17,12.7,19.63,19.63,0,0,1,0,12.38c-.37,1.13-.36,1.14.71,1.45a15,15,0,0,1,8.58,6.41A18.74,18.74,0,0,1,236,45.51v4.33c-.06.27-.13.53-.18.79-1.63,8-7.69,13-15.42,13-8.78,0-17.55,0-26.33,0-9.4,0-18.8.15-28.19-.06-7-.15-12.07-3.86-15.37-10.34A23.25,23.25,0,0,1,148.64,47.14Zm38.25-.54h0c0,1.68,0,3.36,0,5s.79,2.93,2.29,3.08a23.88,23.88,0,0,0,6.54-.08,2.31,2.31,0,0,0,1.82-1.93,8.17,8.17,0,0,0,.16-1.79c0-3.06,0-6.13,0-9.19,0-1.29,0-1.33,1.22-1.33,1.4,0,2.79,0,4.18,0a2.67,2.67,0,0,0,2.75-2.62,3.63,3.63,0,0,0-.95-2.53q-5.21-6.78-10.41-13.57c-1.37-1.78-3-1.79-4.37,0q-5.34,7-10.66,14a2.92,2.92,0,0,0-.48,3.11,2.58,2.58,0,0,0,2.58,1.69c1.48,0,2.95,0,4.43,0,.66,0,.91.27.9,1C186.87,43.11,186.89,44.85,186.89,46.6Z"/>
      <path class="cls-1" d="M81.24,60.17H80.09A4.84,4.84,0,0,1,78,59q-4-3.51-8.1-7a8.32,8.32,0,0,0-2-1.36,3.66,3.66,0,0,0-2.44-.26,2.87,2.87,0,0,0-2.23,2.22c-.2.7-.22,1.42-.45,2.11-1.05,3.16-4.41,4.8-8,3.88a7.53,7.53,0,0,1-3.41-2,4.86,4.86,0,0,1-1.34-5.8c.83-1.91,2.6-2.93,4.84-3.37.65-.12,1.31-.16,2-.29A3,3,0,0,0,59.49,45a2.69,2.69,0,0,0-.67-2.35,10.9,10.9,0,0,0-1.32-1.31l-8.14-7a3.75,3.75,0,0,1-1.27-1.82v-.94a3.32,3.32,0,0,1,1-1.59L58.3,22a4.17,4.17,0,0,1,1.59-.9,1.46,1.46,0,0,1,1.91.76,4.25,4.25,0,0,1,.33,1.34,6.71,6.71,0,0,0,1,3,7.22,7.22,0,0,0,5.26,3.24,8.94,8.94,0,0,0,5-.78,8.13,8.13,0,0,0,4.56-4.9,5,5,0,0,0,.21-2.58,6.29,6.29,0,0,0-3.36-4.47,9.41,9.41,0,0,0-3.89-1.07,6,6,0,0,1-1.59-.29,1.18,1.18,0,0,1-.85-1.67,4.06,4.06,0,0,1,1.15-1.44l8.93-7.73a6.6,6.6,0,0,1,.68-.5,3.47,3.47,0,0,1,3.73,0,7.73,7.73,0,0,1,.94.75l8.06,7a7.54,7.54,0,0,0,2.13,1.39,3.25,3.25,0,0,0,4.22-1.41,3.88,3.88,0,0,0,.3-.93,10.49,10.49,0,0,1,.57-2.32c1.48-3.46,5.69-4.48,9-2.93a7.75,7.75,0,0,1,3.17,2.75,4.62,4.62,0,0,1,.67,3.82c-.56,2.15-2.2,3.43-4.58,4.07-.81.22-1.67.25-2.51.4-2.34.43-3.34,2.29-2.2,4.11a7.94,7.94,0,0,0,1.56,1.67q4.07,3.52,8.15,7.05a3.68,3.68,0,0,1,1.26,1.82v.94a3.28,3.28,0,0,1-1.06,1.61l-9.16,7.92a4.52,4.52,0,0,1-1.54.88,1.47,1.47,0,0,1-1.94-.76,2.34,2.34,0,0,1-.2-.58c-.12-.63-.19-1.26-.33-1.88-.78-3.48-4.78-6.08-9.31-4.94a8.37,8.37,0,0,0-6,4.71,5.64,5.64,0,0,0,1.56,6.93,8.51,8.51,0,0,0,5.19,2,6.06,6.06,0,0,1,1.53.27c.89.31,1.22.93.88,1.72a4.13,4.13,0,0,1-1.13,1.42L83.29,59.1A4.4,4.4,0,0,1,81.24,60.17Z"/>
      <path class="cls-1" d="M300.71,60.17h1.15A4.84,4.84,0,0,0,304,59q4-3.51,8.1-7a8.32,8.32,0,0,1,2-1.36,3.66,3.66,0,0,1,2.44-.26,2.87,2.87,0,0,1,2.23,2.22c.2.7.22,1.42.45,2.11,1.05,3.16,4.41,4.8,7.95,3.88a7.53,7.53,0,0,0,3.41-2,4.86,4.86,0,0,0,1.34-5.8c-.83-1.91-2.6-2.93-4.84-3.37-.65-.12-1.31-.16-2-.29A3,3,0,0,1,322.46,45a2.69,2.69,0,0,1,.67-2.35,10.9,10.9,0,0,1,1.32-1.31l8.14-7a3.75,3.75,0,0,0,1.27-1.82v-.94a3.32,3.32,0,0,0-1.05-1.59L323.65,22a4.17,4.17,0,0,0-1.59-.9,1.46,1.46,0,0,0-1.91.76,4.25,4.25,0,0,0-.33,1.34,6.71,6.71,0,0,1-1,3,7.22,7.22,0,0,1-5.26,3.24,8.94,8.94,0,0,1-5-.78,8.13,8.13,0,0,1-4.56-4.9,5,5,0,0,1-.21-2.58,6.29,6.29,0,0,1,3.36-4.47,9.41,9.41,0,0,1,3.89-1.07,6,6,0,0,0,1.59-.29,1.18,1.18,0,0,0,.85-1.67,4.06,4.06,0,0,0-1.15-1.44l-8.93-7.73a6.6,6.6,0,0,0-.68-.5A3.47,3.47,0,0,0,299,4a7.73,7.73,0,0,0-.94.75l-8.06,7a7.54,7.54,0,0,1-2.13,1.39,3.25,3.25,0,0,1-4.22-1.41,3.88,3.88,0,0,1-.3-.93,10.49,10.49,0,0,0-.57-2.32c-1.48-3.46-5.69-4.48-9-2.93a7.75,7.75,0,0,0-3.17,2.75,4.62,4.62,0,0,0-.67,3.82c.56,2.15,2.2,3.43,4.57,4.07.82.22,1.68.25,2.52.4,2.34.43,3.34,2.29,2.2,4.11a7.94,7.94,0,0,1-1.56,1.67q-4.07,3.52-8.15,7.05a3.68,3.68,0,0,0-1.26,1.82v.94a3.28,3.28,0,0,0,1.06,1.61l9.16,7.92a4.52,4.52,0,0,0,1.54.88,1.47,1.47,0,0,0,1.94-.76,2.34,2.34,0,0,0,.2-.58c.12-.63.19-1.26.33-1.88.78-3.48,4.78-6.08,9.31-4.94a8.37,8.37,0,0,1,6,4.71,5.64,5.64,0,0,1-1.56,6.93,8.51,8.51,0,0,1-5.19,2,6.06,6.06,0,0,0-1.53.27c-.89.31-1.22.93-.88,1.72a4.13,4.13,0,0,0,1.13,1.42l8.85,7.65A4.4,4.4,0,0,0,300.71,60.17Z"/>
    </g>
  </g>
</svg>
